{
  "accessors": [
    {
      "bufferView": 2,
      "componentType": 5126,
      "count": 2499,
      "max": [
        21.52389907836914,
        78.954833984375,
        97.48411560058594
      ],
      "min": [
        -21.566186904907227,
        -58.07682418823242,
        3.3790969848632813
      ],
      "type": "VEC3"
    },
    {
      "bufferView": 2,
      "byteOffset": 29988,
      "componentType": 5126,
      "count": 2499,
      "max": [
        1.0,
        1.0,
        0.9992823600769043
      ],
      "min": [
        -1.0,
        -0.9995366334915161,
        -0.9986342191696167
      ],
      "type": "VEC3"
    },
    {
      "bufferView": 1,
      "componentType": 5126,
      "count": 2499,
      "max": [
        0.8766980171203613,
        0.786080002784729
      ],
      "min": [
        0.004999999888241291,
        0.004999999888241291
      ],
      "type": "VEC2"
    },
    {
      "bufferView": 0,
      "componentType": 5125,
      "count": 3780,
      "type": "SCALAR"
    },
    {
      "bufferView": 2,
      "byteOffset": 59976,
      "componentType": 5126,
      "count": 11718,
      "max": [
        21.85478401184082,
        83.24642181396484,
        112.87741088867188
      ],
      "min": [
        -21.74808692932129,
        -83.7501220703125,
        0.00019799999427050352
      ],
      "type": "VEC3"
    },
    {
      "bufferView": 2,
      "byteOffset": 200592,
      "componentType": 5126,
      "count": 11718,
      "max": [
        1.0,
        1.0,
        1.0
      ],
      "min": [
        -1.0,
        -1.0,
        -1.0
      ],
      "type": "VEC3"
    },
    {
      "bufferView": 1,
      "byteOffset": 19992,
      "componentType": 5126,
      "count": 11718,
      "max": [
        0.9297999739646912,
        0.9502149820327759
      ],
      "min": [
        0.004999999888241291,
        0.004999999888241291
      ],
      "type": "VEC2"
    },
    {
      "bufferView": 0,
      "byteOffset": 15120,
      "componentType": 5125,
      "count": 31326,
      "type": "SCALAR"
    },
    {
      "bufferView": 2,
      "byteOffset": 341208,
      "componentType": 5126,
      "count": 6852,
      "max": [
        22.195619583129883,
        81.99673461914063,
        111.33301544189453
      ],
      "min": [
        -22.195619583129883,
        -62.900123596191406,
        1.9964940547943115
      ],
      "type": "VEC3"
    },
    {
      "bufferView": 2,
      "byteOffset": 423432,
      "componentType": 5126,
      "count": 6852,
      "max": [
        1.0,
        1.0,
        1.0
      ],
      "min": [
        -1.0,
        -1.0,
        -0.999462902545929
      ],
      "type": "VEC3"
    },
    {
      "bufferView": 1,
      "byteOffset": 113736,
      "componentType": 5126,
      "count": 6852,
      "max": [
        0.9305989742279053,
        0.9511500000953674
      ],
      "min": [
        0.004999999888241291,
        0.004999999888241291
      ],
      "type": "VEC2"
    },
    {
      "bufferView": 0,
      "byteOffset": 140424,
      "componentType": 5125,
      "count": 13380,
      "type": "SCALAR"
    },
    {
      "bufferView": 2,
      "byteOffset": 505656,
      "componentType": 5126,
      "count": 6889,
      "max": [
        22.195619583129883,
        82.01312255859375,
        110.8219223022461
      ],
      "min": [
        -22.195619583129883,
        -61.547943115234375,
        2.1392970085144043
      ],
      "type": "VEC3"
    },
    {
      "bufferView": 2,
      "byteOffset": 588324,
      "componentType": 5126,
      "count": 6889,
      "max": [
        1.0,
        1.0,
        1.0
      ],
      "min": [
        -1.0,
        -1.0,
        -1.0
      ],
      "type": "VEC3"
    },
    {
      "bufferView": 1,
      "byteOffset": 168552,
      "componentType": 5126,
      "count": 6889,
      "max": [
        0.9356709718704224,
        0.9498609900474548
      ],
      "min": [
        0.004999999888241291,
        0.004999999888241291
      ],
      "type": "VEC2"
    },
    {
      "bufferView": 0,
      "byteOffset": 193944,
      "componentType": 5125,
      "count": 12933,
      "type": "SCALAR"
    },
    {
      "bufferView": 2,
      "byteOffset": 670992,
      "componentType": 5126,
      "count": 5353,
      "max": [
        22.195619583129883,
        82.01312255859375,
        112.43092346191406
      ],
      "min": [
        -22.195619583129883,
        -68.84392547607422,
        1.8846969604492188
      ],
      "type": "VEC3"
    },
    {
      "bufferView": 2,
      "byteOffset": 735228,
      "componentType": 5126,
      "count": 5353,
      "max": [
        1.0,
        1.0,
        0.9995216131210327
      ],
      "min": [
        -1.0,
        -1.0,
        -0.9999072551727295
      ],
      "type": "VEC3"
    },
    {
      "bufferView": 1,
      "byteOffset": 223664,
      "componentType": 5126,
      "count": 5353,
      "max": [
        0.9395449757575989,
        0.9502149820327759
      ],
      "min": [
        0.004999999888241291,
        0.005733000114560127
      ],
      "type": "VEC2"
    },
    {
      "bufferView": 0,
      "byteOffset": 245676,
      "componentType": 5125,
      "count": 11370,
      "type": "SCALAR"
    },
    {
      "bufferView": 2,
      "byteOffset": 799464,
      "componentType": 5126,
      "count": 4003,
      "max": [
        22.195619583129883,
        79.69951629638672,
        98.9901123046875
      ],
      "min": [
        -21.530088424682617,
        -58.82492446899414,
        4.052700042724609
      ],
      "type": "VEC3"
    },
    {
      "bufferView": 2,
      "byteOffset": 847500,
      "componentType": 5126,
      "count": 4003,
      "max": [
        1.0,
        0.9999485015869141,
        1.0
      ],
      "min": [
        -1.0,
        -0.9999252557754517,
        -0.9999796152114868
      ],
      "type": "VEC3"
    },
    {
      "bufferView": 1,
      "byteOffset": 266488,
      "componentType": 5126,
      "count": 4003,
      "max": [
        0.9327139854431152,
        0.9513800144195557
      ],
      "min": [
        0.005014999769628048,
        0.004999999888241291
      ],
      "type": "VEC2"
    },
    {
      "bufferView": 0,
      "byteOffset": 291156,
      "componentType": 5125,
      "count": 6564,
      "type": "SCALAR"
    },
    {
      "bufferView": 2,
      "byteOffset": 895536,
      "componentType": 5126,
      "count": 6515,
      "max": [
        22.195619583129883,
        81.94813537597656,
        112.07701110839844
      ],
      "min": [
        -22.195619583129883,
        -68.45243072509766,
        1.7390979528427124
      ],
      "type": "VEC3"
    },
    {
      "bufferView": 2,
      "byteOffset": 973716,
      "componentType": 5126,
      "count": 6515,
      "max": [
        1.0,
        1.0,
        0.9994363784790039
      ],
      "min": [
        -1.0,
        -1.0,
        -0.9999677538871765
      ],
      "type": "VEC3"
    },
    {
      "bufferView": 1,
      "byteOffset": 298512,
      "componentType": 5126,
      "count": 6515,
      "max": [
        0.9415150284767151,
        0.9479690194129944
      ],
      "min": [
        0.004999999888241291,
        0.004999999888241291
      ],
      "type": "VEC2"
    },
    {
      "bufferView": 0,
      "byteOffset": 317412,
      "componentType": 5125,
      "count": 14127,
      "type": "SCALAR"
    },
    {
      "bufferView": 2,
      "byteOffset": 1051896,
      "componentType": 5126,
      "count": 3566,
      "max": [
        22.195619583129883,
        83.24642181396484,
        97.48041534423828
      ],
      "min": [
        -21.415786743164063,
        -83.25382232666016,
        0.5036960244178772
      ],
      "type": "VEC3"
    },
    {
      "bufferView": 2,
      "byteOffset": 1094688,
      "componentType": 5126,
      "count": 3566,
      "max": [
        1.0,
        1.0,
        1.0
      ],
      "min": [
        -1.0,
        -1.0,
        -1.0
      ],
      "type": "VEC3"
    },
    {
      "bufferView": 1,
      "byteOffset": 350632,
      "componentType": 5126,
      "count": 3566,
      "max": [
        0.9328359961509705,
        0.9495540261268616
      ],
      "min": [
        0.004999999888241291,
        0.004999999888241291
      ],
      "type": "VEC2"
    },
    {
      "bufferView": 0,
      "byteOffset": 373920,
      "componentType": 5125,
      "count": 8622,
      "type": "SCALAR"
    },
    {
      "bufferView": 2,
      "byteOffset": 1137480,
      "componentType": 5126,
      "count": 49480,
      "max": [
        22.195619583129883,
        83.24642181396484,
        113.0124740600586
      ],
      "min": [
        -22.195619583129883,
        -83.25373840332031,
        0.5037959814071655
      ],
      "type": "VEC3"
    },
    {
      "bufferView": 2,
      "byteOffset": 1731240,
      "componentType": 5126,
      "count": 49480,
      "max": [
        1.0,
        1.0,
        1.0
      ],
      "min": [
        -1.0,
        -1.0,
        -1.0
      ],
      "type": "VEC3"
    },
    {
      "bufferView": 1,
      "byteOffset": 379160,
      "componentType": 5126,
      "count": 49480,
      "max": [
        0.9950000047683716,
        0.9506649971008301
      ],
      "min": [
        0.004999999888241291,
        0.004999999888241291
      ],
      "type": "VEC2"
    },
    {
      "bufferView": 0,
      "byteOffset": 408408,
      "componentType": 5125,
      "count": 135600,
      "type": "SCALAR"
    },
    {
      "bufferView": 2,
      "byteOffset": 2325000,
      "componentType": 5126,
      "count": 65532,
      "max": [
        22.195619583129883,
        83.7501220703125,
        113.03156280517578
      ],
      "min": [
        -22.195619583129883,
        -83.25373840332031,
        9.500000305706635e-05
      ],
      "type": "VEC3"
    },
    {
      "bufferView": 2,
      "byteOffset": 3111384,
      "componentType": 5126,
      "count": 65532,
      "max": [
        1.0,
        1.0,
        1.0
      ],
      "min": [
        -1.0,
        -1.0,
        -1.0
      ],
      "type": "VEC3"
    },
    {
      "bufferView": 1,
      "byteOffset": 775000,
      "componentType": 5126,
      "count": 65532,
      "max": [
        0.9574120044708252,
        0.9536979794502258
      ],
      "min": [
        0.004999999888241291,
        0.004999999888241291
      ],
      "type": "VEC2"
    },
    {
      "bufferView": 0,
      "byteOffset": 950808,
      "componentType": 5125,
      "count": 240375,
      "type": "SCALAR"
    },
    {
      "bufferView": 2,
      "byteOffset": 3897768,
      "componentType": 5126,
      "count": 21992,
      "max": [
        9.28399658203125,
        79.28292846679688,
        97.555908203125
      ],
      "min": [
        -9.21600341796875,
        -53.10452651977539,
        4.102703094482422
      ],
      "type": "VEC3"
    },
    {
      "bufferView": 2,
      "byteOffset": 4161672,
      "componentType": 5126,
      "count": 21992,
      "max": [
        1.0,
        1.0,
        0.9999715089797974
      ],
      "min": [
        -1.0,
        -1.0,
        -1.0
      ],
      "type": "VEC3"
    },
    {
      "bufferView": 1,
      "byteOffset": 1299256,
      "componentType": 5126,
      "count": 21992,
      "max": [
        0.7354729771614075,
        0.8193519711494446
      ],
      "min": [
        0.004999999888241291,
        0.004999999888241291
      ],
      "type": "VEC2"
    },
    {
      "bufferView": 0,
      "byteOffset": 1912308,
      "componentType": 5125,
      "count": 91257,
      "type": "SCALAR"
    }
  ],
  "asset": {
    "extras": {
      "author": "Francesco Coldesina (https://sketchfab.com/topfrank2013)",
      "license": "CC-BY-4.0 (http://creativecommons.org/licenses/by/4.0/)",
      "source": "https://sketchfab.com/3d-models/racing-bicycle-223901fe94de4d55b6324e7d7e273469",
      "title": "Racing Bicycle"
    },
    "generator": "Sketchfab-12.65.0",
    "version": "2.0"
  },
  "bufferViews": [
    {
      "buffer": 0,
      "byteLength": 2277336,
      "name": "floatBufferViews",
      "target": 34963
    },
    {
      "buffer": 0,
      "byteLength": 1475192,
      "byteOffset": 2277336,
      "byteStride": 8,
      "name": "floatBufferViews",
      "target": 34962
    },
    {
      "buffer": 0,
      "byteLength": 4425576,
      "byteOffset": 3752528,
      "byteStride": 12,
      "name": "floatBufferViews",
      "target": 34962
    }
  ],
  "buffers": [
    {
      "byteLength": 8178104,
      "uri": "scene.bin"
    }
  ],
  "extensionsRequired": [
    "KHR_materials_pbrSpecularGlossiness"
  ],
  "extensionsUsed": [
    "KHR_materials_pbrSpecularGlossiness"
  ],
  "images": [
    {
      "uri": "textures/BiciCorsa_A1_diffuse.jpeg"
    },
    {
      "uri": "textures/BiciCorsa_A1_specularGlossiness.png"
    },
    {
      "uri": "textures/BiciCorsa_A1_occlusion.png"
    }
  ],
  "materials": [
    {
      "doubleSided": true,
      "emissiveTexture": {
        "index": 0
      },
      "extensions": {
        "KHR_materials_pbrSpecularGlossiness": {
          "diffuseFactor": [
            1.0,
            1.0,
            1.0,
            1.0
          ],
          "diffuseTexture": {
            "index": 0
          },
          "glossinessFactor": 1.0,
          "specularFactor": [
            1.0,
            1.0,
            1.0
          ],
          "specularGlossinessTexture": {
            "index": 1
          }
        }
      },
      "name": "BiciCorsa_A1",
      "occlusionTexture": {
        "index": 2
      }
    }
  ],
  "meshes": [
    {
      "name": "Object_0",
      "primitives": [
        {
          "attributes": {
            "NORMAL": 1,
            "POSITION": 0,
            "TEXCOORD_0": 2
          },
          "indices": 3,
          "material": 0,
          "mode": 4
        }
      ]
    },
    {
      "name": "Object_1",
      "primitives": [
        {
          "attributes": {
            "NORMAL": 5,
            "POSITION": 4,
            "TEXCOORD_0": 6
          },
          "indices": 7,
          "material": 0,
          "mode": 4
        }
      ]
    },
    {
      "name": "Object_2",
      "primitives": [
        {
          "attributes": {
            "NORMAL": 9,
            "POSITION": 8,
            "TEXCOORD_0": 10
          },
          "indices": 11,
          "material": 0,
          "mode": 4
        }
      ]
    },
    {
      "name": "Object_3",
      "primitives": [
        {
          "attributes": {
            "NORMAL": 13,
            "POSITION": 12,
            "TEXCOORD_0": 14
          },
          "indices": 15,
          "material": 0,
          "mode": 4
        }
      ]
    },
    {
      "name": "Object_4",
      "primitives": [
        {
          "attributes": {
            "NORMAL": 17,
            "POSITION": 16,
            "TEXCOORD_0": 18
          },
          "indices": 19,
          "material": 0,
          "mode": 4
        }
      ]
    },
    {
      "name": "Object_5",
      "primitives": [
        {
          "attributes": {
            "NORMAL": 21,
            "POSITION": 20,
            "TEXCOORD_0": 22
          },
          "indices": 23,
          "material": 0,
          "mode": 4
        }
      ]
    },
    {
      "name": "Object_6",
      "primitives": [
        {
          "attributes": {
            "NORMAL": 25,
            "POSITION": 24,
            "TEXCOORD_0": 26
          },
          "indices": 27,
          "material": 0,
          "mode": 4
        }
      ]
    },
    {
      "name": "Object_7",
      "primitives": [
        {
          "attributes": {
            "NORMAL": 29,
            "POSITION": 28,
            "TEXCOORD_0": 30
          },
          "indices": 31,
          "material": 0,
          "mode": 4
        }
      ]
    },
    {
      "name": "Object_8",
      "primitives": [
        {
          "attributes": {
            "NORMAL": 33,
            "POSITION": 32,
            "TEXCOORD_0": 34
          },
          "indices": 35,
          "material": 0,
          "mode": 4
        }
      ]
    },
    {
      "name": "Object_9",
      "primitives": [
        {
          "attributes": {
            "NORMAL": 37,
            "POSITION": 36,
            "TEXCOORD_0": 38
          },
          "indices": 39,
          "material": 0,
          "mode": 4
        }
      ]
    },
    {
      "name": "Object_10",
      "primitives": [
        {
          "attributes": {
            "NORMAL": 41,
            "POSITION": 40,
            "TEXCOORD_0": 42
          },
          "indices": 43,
          "material": 0,
          "mode": 4
        }
      ]
    }
  ],
  "nodes": [
    {
      "children": [
        1
      ],
      "matrix": [
        1.0,
        0.0,
        0.0,
        0.0,
        0.0,
        2.220446049250313e-16,
        -1.0,
        0.0,
        0.0,
        1.0,
        2.220446049250313e-16,
        0.0,
        0.0,
        0.0,
        0.0,
        1.0
      ],
      "name": "Sketchfab_model"
    },
    {
      "children": [
        2,
        3,
        4,
        5,
        6,
        7,
        8,
        9,
        10,
        11,
        12
      ],
      "name": "BiciCorsa A1.obj.cleaner.materialmerger.gles"
    },
    {
      "mesh": 0,
      "name": "Object_2"
    },
    {
      "mesh": 1,
      "name": "Object_3"
    },
    {
      "mesh": 2,
      "name": "Object_4"
    },
    {
      "mesh": 3,
      "name": "Object_5"
    },
    {
      "mesh": 4,
      "name": "Object_6"
    },
    {
      "mesh": 5,
      "name": "Object_7"
    },
    {
      "mesh": 6,
      "name": "Object_8"
    },
    {
      "mesh": 7,
      "name": "Object_9"
    },
    {
      "mesh": 8,
      "name": "Object_10"
    },
    {
      "mesh": 9,
      "name": "Object_11"
    },
    {
      "mesh": 10,
      "name": "Object_12"
    }
  ],
  "samplers": [
    {
      "magFilter": 9729,
      "minFilter": 9987,
      "wrapS": 10497,
      "wrapT": 10497
    }
  ],
  "scene": 0,
  "scenes": [
    {
      "name": "Sketchfab_Scene",
      "nodes": [
        0
      ]
    }
  ],
  "textures": [
    {
      "sampler": 0,
      "source": 0
    },
    {
      "sampler": 0,
      "source": 1
    },
    {
      "sampler": 0,
      "source": 2
    }
  ]
}
